<svg width="23" height="38" viewBox="0 0 23 38" fill="none" xmlns="http://www.w3.org/2000/svg">
<path d="M23 7.21843V7.30646C23 8.3435 23 8.86322 22.7619 9.28768C22.5239 9.71214 22.0904 9.96417 21.2255 10.4694L20.3136 11C20.9415 8.77158 21.1519 6.37674 21.229 4.3292L21.2405 4.0627L21.2428 4C21.9914 4.27252 22.4123 4.47631 22.6745 4.85736C23 5.33127 23 5.96072 23 7.21843ZM0 7.21843V7.30646C0 8.3435 1.71363e-08 8.86322 0.23805 9.28768C0.4761 9.71214 0.90965 9.96417 1.77445 10.4694L2.68755 11C2.0585 8.77158 1.84805 6.37674 1.771 4.3292L1.7595 4.0627L1.75835 4C1.00855 4.27252 0.58765 4.47631 0.32545 4.85736C0 5.33127 0 5.96193 0 7.21843Z" fill="white"/>
<path d="M5.93945 37H4.8457V30.8965H2.6875V29.9541H8.09277V30.8965H5.93945V37Z" fill="white"/>
<path d="M10.3047 37.0977C8.83496 37.0977 7.86816 36.0869 7.86816 34.4316C7.86816 32.7812 8.83984 31.7705 10.3047 31.7705C11.7695 31.7705 12.7412 32.7812 12.7412 34.4316C12.7412 36.0869 11.7744 37.0977 10.3047 37.0977ZM10.3047 36.2285C11.1348 36.2285 11.667 35.5742 11.667 34.4316C11.667 33.2939 11.1299 32.6396 10.3047 32.6396C9.47949 32.6396 8.94238 33.2939 8.94238 34.4316C8.94238 35.5742 9.47949 36.2285 10.3047 36.2285Z" fill="white"/>
<path d="M16.9746 37V32.6982H14.6992V37H13.6494V31.8633H18.0293V37H16.9746Z" fill="white"/>
<path fill-rule="evenodd" clip-rule="evenodd" d="M10.4997 0.000261851C12.4148 0.000261851 13.9917 0.18185 15.1983 0.401607C16.421 0.623677 17.0319 0.734712 17.5428 1.41249C18.0538 2.09026 18.0259 2.8224 17.9722 4.28667C17.7876 9.31679 16.7807 15.5984 11.3048 16.1535V20.241H12.8399C13.088 20.2412 13.3283 20.3339 13.5201 20.5034C13.7119 20.673 13.8433 20.9088 13.8919 21.1709L14.0959 22.2651H16.9406C17.1541 22.2651 17.3589 22.3565 17.5099 22.5192C17.6609 22.6818 17.7457 22.9025 17.7457 23.1325C17.7457 23.3626 17.6609 23.5832 17.5099 23.7459C17.3589 23.9086 17.1541 24 16.9406 24H4.05878C3.84525 24 3.64047 23.9086 3.48948 23.7459C3.33849 23.5832 3.25367 23.3626 3.25367 23.1325C3.25367 22.9025 3.33849 22.6818 3.48948 22.5192C3.64047 22.3565 3.84525 22.2651 4.05878 22.2651H6.90352L7.10748 21.1709C7.1561 20.9088 7.28748 20.673 7.47927 20.5034C7.67106 20.3339 7.91142 20.2412 8.1595 20.241H9.69458V16.1535C4.2198 15.5984 3.21287 9.31563 3.02823 4.28667C2.97349 2.8224 2.94665 2.08911 3.45763 1.41249C3.96753 0.734712 4.57835 0.623677 5.80105 0.401607C7.3542 0.127485 8.92585 -0.00676081 10.4997 0.000261851ZM11.5217 4.85688L11.4165 4.65332C11.0085 3.86335 10.8046 3.4701 10.4997 3.4701C10.1948 3.4701 9.99086 3.86335 9.58294 4.65332L9.47774 4.85688C9.3618 5.08127 9.30383 5.1923 9.21366 5.26632C9.12241 5.34035 9.0097 5.36811 8.78427 5.42247L8.5803 5.47336C7.78807 5.66651 7.39195 5.76251 7.29749 6.08868C7.20302 6.41484 7.47354 6.75604 8.0135 7.43613L8.15306 7.61194C8.30656 7.80509 8.38385 7.90109 8.41821 8.02138C8.45256 8.14167 8.44075 8.27005 8.41821 8.52798L8.39674 8.76277C8.31515 9.67071 8.27436 10.1253 8.52019 10.3265C8.76709 10.5278 9.13852 10.3439 9.88029 9.97606L10.0714 9.88121C10.2829 9.77712 10.3881 9.72507 10.4997 9.72507C10.6113 9.72507 10.7165 9.77712 10.928 9.88121L11.1191 9.97606C11.8609 10.345 12.2323 10.5278 12.4792 10.3265C12.7261 10.1253 12.6842 9.67071 12.6027 8.76277L12.5812 8.52798C12.5586 8.27005 12.5468 8.14167 12.5812 8.02138C12.6155 7.90109 12.6928 7.80509 12.8463 7.61194L12.9859 7.43613C13.5259 6.75604 13.7964 6.416 13.7019 6.08868C13.6074 5.76251 13.2113 5.66651 12.4191 5.47336L12.2151 5.42247C11.9897 5.36811 11.877 5.3415 11.7857 5.26632C11.6956 5.1923 11.6376 5.08127 11.5217 4.85688Z" fill="white"/>
</svg>
