<svg width="33" height="39" viewBox="0 0 33 39" fill="none" xmlns="http://www.w3.org/2000/svg">
<path d="M2.26074 34.2754C2.21191 35.0762 2.11426 35.6182 1.77734 36.0137V36.0527H5V30.8965H2.47559L2.26074 34.2754ZM1.00586 37V38.3916H0V36.0527H0.512695C1.01562 35.7598 1.19141 35.1592 1.24512 34.2266L1.50391 29.9541H6.09375V36.0527H6.97266V38.3916H5.97168V37H1.00586Z" fill="white"/>
<path d="M10.5029 31.7803C11.8066 31.7803 12.666 32.8057 12.666 34.4316C12.666 36.0576 11.8115 37.0879 10.5225 37.0879C9.78516 37.0879 9.19922 36.7266 8.90625 36.1553H8.88184V38.6992H7.82715V31.8633H8.84766V32.7471H8.86719C9.16992 32.1562 9.76074 31.7803 10.5029 31.7803ZM10.2246 36.1943C11.0596 36.1943 11.582 35.5107 11.582 34.4316C11.582 33.3574 11.0596 32.6689 10.2246 32.6689C9.41895 32.6689 8.87695 33.3721 8.87695 34.4316C8.87695 35.501 9.41406 36.1943 10.2246 36.1943Z" fill="white"/>
<path d="M13.9502 38.9141C13.8672 38.9141 13.5986 38.9043 13.5205 38.8896V38.0352C13.5986 38.0547 13.7744 38.0547 13.8623 38.0547C14.3555 38.0547 14.6143 37.8496 14.7754 37.3223C14.7754 37.3125 14.8682 37.0098 14.8682 37.0049L13.0127 31.8633H14.1553L15.459 36.043H15.4736L16.7773 31.8633H17.8906L15.9619 37.2686C15.5225 38.5137 15.0195 38.9141 13.9502 38.9141Z" fill="white"/>
<path d="M20.4102 37.0977C19.209 37.0977 18.374 36.5068 18.2812 35.5596H19.3213C19.4287 36.0039 19.8193 36.248 20.4102 36.248C21.084 36.248 21.46 35.9355 21.46 35.4814C21.46 34.9688 21.1133 34.7344 20.415 34.7344H19.6631V33.958H20.4004C20.9912 33.958 21.2988 33.7334 21.2988 33.2842C21.2988 32.8887 21.0156 32.6104 20.415 32.6104C19.8486 32.6104 19.4678 32.8545 19.3994 33.2549H18.3887C18.4961 32.3418 19.2627 31.7705 20.4102 31.7705C21.6553 31.7705 22.3291 32.3271 22.3291 33.1816C22.3291 33.7041 22.0068 34.1484 21.5088 34.2754V34.3145C22.1631 34.4658 22.5098 34.8906 22.5098 35.4766C22.5098 36.4531 21.6846 37.0977 20.4102 37.0977Z" fill="white"/>
<path d="M25.376 34.2754H24.4873V36.1699H25.376C25.9814 36.1699 26.3721 35.7891 26.3721 35.2227C26.3721 34.6514 25.9766 34.2754 25.376 34.2754ZM23.4375 37V31.8633H24.4873V33.4502H25.4688C26.6553 33.4502 27.4219 34.1387 27.4219 35.2227C27.4219 36.3115 26.6553 37 25.4688 37H23.4375Z" fill="white"/>
<path d="M30.1807 34.4268H31.1133V32.6934H30.1807C29.5801 32.6934 29.1943 33.0352 29.1943 33.5918C29.1943 34.0801 29.585 34.4268 30.1807 34.4268ZM31.1133 37V35.2373H30.332L29.0869 37H27.8955L29.2969 35.0566C28.584 34.8467 28.1445 34.3145 28.1445 33.5967C28.1445 32.5273 28.9258 31.8633 30.127 31.8633H32.1484V37H31.1133Z" fill="white"/>
<path fill-rule="evenodd" clip-rule="evenodd" d="M12.0041 2.67531C11.8833 2.21268 11.6665 1.77846 11.3669 1.39882C11.0673 1.01918 10.6911 0.702004 10.2609 0.466415C9.83077 0.230826 9.35558 0.0817076 8.86402 0.0280556C8.37246 -0.0255963 7.87473 0.0173295 7.40084 0.154244C6.92696 0.291158 6.48674 0.519224 6.10674 0.824685C5.72674 1.13015 5.41484 1.50667 5.18984 1.93155C4.96485 2.35643 4.83143 2.82085 4.79762 3.29681C4.76382 3.77278 4.83034 4.25041 4.99316 4.7009L7.89334 12.692L6.70811 18.7888C6.49972 19.8613 6.71193 20.9703 7.30357 21.9004C7.8952 22.8305 8.82406 23.5155 9.90987 23.8224C10.9957 24.1293 12.161 24.0362 13.1796 23.5612C14.1983 23.0862 14.9976 22.2631 15.4225 21.2518V19.0259H13.9799V17.3564H18.5962V19.0259H17.1536V21.2518C17.5785 22.2631 18.3778 23.0862 19.3965 23.5612C20.4151 24.0362 21.5804 24.1293 22.6662 23.8224C23.752 23.5155 24.6809 22.8305 25.2725 21.9004C25.8641 20.9703 26.0764 19.8613 25.868 18.7888L24.6827 12.692L27.5829 4.7009C27.7467 4.25012 27.8141 3.77197 27.7808 3.29538C27.7475 2.81879 27.6144 2.35365 27.3894 1.92809C27.1645 1.50253 26.8523 1.1254 26.4719 0.819484C26.0915 0.513571 25.6507 0.285238 25.1762 0.148292C24.7017 0.0113455 24.2033 -0.0313697 23.7112 0.0227291C23.2191 0.0768279 22.7434 0.226617 22.313 0.463039C21.8827 0.699461 21.5065 1.0176 21.2072 1.39823C20.9079 1.77886 20.6918 2.21407 20.5719 2.67753L19.0751 8.45382H13.501L12.0041 2.67531ZM11.0947 15.9641V13.1817H13.4029V15.9641H11.0947ZM19.1732 13.1817V15.9641H21.4814V13.1817H19.1732Z" fill="white"/>
</svg>
