<svg width="60" height="34" viewBox="0 0 60 34" fill="none" xmlns="http://www.w3.org/2000/svg">
<rect width="60" height="34" rx="5" fill="#E77D65"/>
<path d="M44.7067 15.7677C45.0969 16.1442 45.0969 16.7774 44.7067 17.1819L38.3467 23.773C37.9565 24.1774 37.3237 24.2 36.9334 23.8234C36.5432 23.4469 36.5432 22.8137 36.9334 22.4092L42.5867 16.5505L36.9334 11.0955C36.5432 10.7189 36.5432 10.0858 36.9334 9.68131C37.3237 9.27685 37.9565 9.25425 38.3467 9.63083L44.7067 15.7677ZM16 17.5L16 16.5L30 16L30 17L30 18L16 18.5L16 17.5ZM30 17L30 16L44 15.5L44 16.5L44 17.5L30 18L30 17Z" fill="white"/>
</svg>
