<svg width="24" height="26" viewBox="0 0 24 26" fill="none" xmlns="http://www.w3.org/2000/svg">
<path d="M16.4875 0H11.2422C8.86607 0 6.98294 0 5.51065 0.193861C3.99391 0.392961 2.76677 0.812119 1.79962 1.75654C0.83111 2.70095 0.401411 3.89948 0.198012 5.37963C1.00361e-07 6.81787 0 8.65562 0 10.9754V18.6224C0 20.5977 1.23926 22.29 2.99981 23C2.90956 21.808 2.90956 20.1379 2.90956 18.7469V12.1844C2.90956 10.5065 2.90956 9.05906 3.06851 7.90113C3.23958 6.65938 3.62482 5.47002 4.61353 4.50464C5.60225 3.53927 6.8213 3.16334 8.09288 2.99567C9.27826 2.84111 10.76 2.84111 12.4801 2.84111H16.6155C18.3343 2.84111 19.8133 2.84111 21 2.99567C20.6445 2.1132 20.0239 1.35537 19.2189 0.821004C18.414 0.286636 17.4621 0.000531575 16.4875 0Z" fill="white"/>
<path d="M5 12.4114C5 8.9178 5 7.171 6.11361 6.0855C7.2259 5 9.01639 5 12.6 5H16.4C19.9823 5 21.7741 5 22.8877 6.0855C24.0013 7.171 24 8.9178 24 12.4114V18.5886C24 22.0822 24 23.829 22.8877 24.9145C21.7741 26 19.9823 26 16.4 26H12.6C9.01771 26 7.2259 26 6.11361 24.9145C5 23.829 5 22.0822 5 18.5886V12.4114Z" fill="white"/>
</svg>
