<svg width="33" height="39" viewBox="0 0 33 39" fill="none" xmlns="http://www.w3.org/2000/svg">
<path d="M2.49512 34.3037L5.78125 38H4.16992L1.29883 34.7871H1.25977V38H0V30.9541H1.25977V34.0352H1.29883L4.05762 30.9541H5.5127L2.49512 34.3037Z" fill="white"/>
<path d="M8.39844 38.1025C6.87988 38.1025 5.89355 37.0918 5.89355 35.4121C5.89355 33.7422 6.88965 32.7168 8.39844 32.7168C9.90723 32.7168 10.9033 33.7373 10.9033 35.4121C10.9033 37.0918 9.91699 38.1025 8.39844 38.1025ZM8.39844 37.1406C9.16992 37.1406 9.66797 36.5156 9.66797 35.4121C9.66797 34.3135 9.16992 33.6836 8.39844 33.6836C7.63184 33.6836 7.12891 34.3135 7.12891 35.4121C7.12891 36.5156 7.62695 37.1406 8.39844 37.1406Z" fill="white"/>
<path d="M13.3008 35.5879C13.2031 37.0869 12.8125 38.0537 11.5967 38.0537C11.4062 38.0537 11.2646 38.0195 11.2012 37.9951V36.9502C11.25 36.9648 11.3525 36.9893 11.4893 36.9893C11.9922 36.9893 12.1582 36.3838 12.207 35.5244L12.373 32.8242H16.1084V38H14.8975V33.7617H13.4229L13.3008 35.5879Z" fill="white"/>
<path d="M19.4336 33.6592C18.75 33.6592 18.2568 34.1816 18.208 34.9043H20.625C20.6006 34.1719 20.1318 33.6592 19.4336 33.6592ZM20.6299 36.4521H21.7676C21.6113 37.4287 20.7031 38.1025 19.4775 38.1025C17.9248 38.1025 16.9873 37.082 16.9873 35.4316C16.9873 33.7959 17.9346 32.7168 19.4287 32.7168C20.8984 32.7168 21.8164 33.7373 21.8164 35.3096V35.7051H18.1982V35.7783C18.1982 36.6084 18.7061 37.165 19.502 37.165C20.0684 37.165 20.498 36.8818 20.6299 36.4521Z" fill="white"/>
<path d="M27.2119 34.5283H26.0596C25.9326 34.0645 25.5615 33.7031 24.9561 33.7031C24.1895 33.7031 23.7012 34.3623 23.7012 35.4121C23.7012 36.4814 24.1943 37.1211 24.9609 37.1211C25.5469 37.1211 25.9326 36.8184 26.0693 36.3008H27.2217C27.0752 37.3848 26.2158 38.1025 24.9512 38.1025C23.4375 38.1025 22.4756 37.0771 22.4756 35.4121C22.4756 33.7715 23.4375 32.7168 24.9414 32.7168C26.2451 32.7168 27.0703 33.5176 27.2119 34.5283Z" fill="white"/>
<path d="M30.332 38.1025C28.8135 38.1025 27.8271 37.0918 27.8271 35.4121C27.8271 33.7422 28.8232 32.7168 30.332 32.7168C31.8408 32.7168 32.8369 33.7373 32.8369 35.4121C32.8369 37.0918 31.8506 38.1025 30.332 38.1025ZM30.332 37.1406C31.1035 37.1406 31.6016 36.5156 31.6016 35.4121C31.6016 34.3135 31.1035 33.6836 30.332 33.6836C29.5654 33.6836 29.0625 34.3135 29.0625 35.4121C29.0625 36.5156 29.5605 37.1406 30.332 37.1406Z" fill="white"/>
<path d="M26.6423 19.0002C25.0509 21.7563 22.4298 23.7674 19.3557 24.5911M26.6423 19.0002C28.2336 16.2439 28.6648 12.9685 27.8411 9.89433M26.6423 19.0002L18.5594 14.3334M19.3557 24.5911C16.2815 25.4148 13.0061 24.9836 10.2498 23.3923M19.3557 24.5911L16.9401 15.5758M10.2498 23.3923C7.49368 21.8009 5.48257 19.1798 4.65889 16.1057M10.2498 23.3923L14.9166 15.3094M27.8411 9.89433C27.0174 6.82017 25.0063 4.19911 22.2502 2.60771M27.8411 9.89433L18.8258 12.3099M22.2502 2.60771C19.4939 1.01644 16.2185 0.585215 13.1443 1.40889M22.2502 2.60771L17.5834 10.6906M18.5594 14.3334C18.2058 14.9458 17.6233 15.3928 16.9401 15.5758M18.5594 14.3334C18.913 13.7209 19.0088 12.993 18.8258 12.3099M4.65889 16.1057C3.83522 13.0315 4.26644 9.75606 5.85771 6.99984M4.65889 16.1057L13.6742 13.6901M5.85771 6.99984C7.44911 4.24368 10.0702 2.23257 13.1443 1.40889M5.85771 6.99984L13.9406 11.6666M14.9166 15.3094C15.5291 15.663 16.257 15.7588 16.9401 15.5758M14.9166 15.3094C14.3042 14.9558 13.8572 14.3733 13.6742 13.6901M13.1443 1.40889L15.5599 10.4242M13.9406 11.6666C13.587 12.2791 13.4912 13.007 13.6742 13.6901M13.9406 11.6666C14.2942 11.0542 14.8767 10.6072 15.5599 10.4242M17.5834 10.6906C18.1958 11.0442 18.6428 11.6267 18.8258 12.3099M17.5834 10.6906C16.9709 10.337 16.243 10.2412 15.5599 10.4242" stroke="white" stroke-width="2" stroke-linecap="round" stroke-linejoin="round"/>
</svg>
