<svg width="60" height="34" viewBox="0 0 60 34" fill="none" xmlns="http://www.w3.org/2000/svg">
<rect x="60" y="34" width="60" height="34" rx="5" transform="rotate(-180 60 34)" fill="#E77D65"/>
<path d="M15.2933 18.2323C14.9031 17.8558 14.9031 17.2226 15.2933 16.8181L21.6533 10.227C22.0435 9.82257 22.6763 9.79997 23.0666 10.1766C23.4568 10.5531 23.4568 11.1863 23.0666 11.5908L17.4133 17.4495L23.0666 22.9045C23.4568 23.2811 23.4568 23.9142 23.0666 24.3187C22.6763 24.7232 22.0435 24.7458 21.6533 24.3692L15.2933 18.2323ZM44 16.5L44 17.5L30 18L30 17L30 16L44 15.5L44 16.5ZM30 17L30 18L16 18.5L16 17.5L16 16.5L30 16L30 17Z" fill="white"/>
</svg>
